<svg version="1.1" id="Layer_1" xmlns="http://www.w3.org/2000/svg" xmlns:xlink="http://www.w3.org/1999/xlink" x="0px" y="0px"
	 width="100%" viewBox="0 0 256 256" enable-background="new 0 0 256 256" xml:space="preserve">
<path fill="#FFFFFF" opacity="1.000000" stroke="none" 
	d="
M1.000000,85.000000 
	C1.000000,57.013111 1.000000,29.026218 1.000000,1.019664 
	C86.280266,1.019664 171.560547,1.019664 256.920410,1.019664 
	C256.920410,86.240250 256.920410,171.480606 256.920410,256.860474 
	C171.666824,256.860474 86.333443,256.860474 1.000000,256.860474 
	C1.000000,229.578537 1.000000,202.257919 1.468657,174.469025 
	C84.867111,174.000748 167.796921,174.000748 250.747986,174.000748 
	C250.747986,143.736679 250.747986,113.991875 250.747986,84.137917 
	C247.360764,84.137917 244.225006,84.137917 240.617737,84.082756 
	C232.105209,84.073280 224.064194,84.118965 215.559052,84.085220 
	C197.385376,84.112770 179.675858,84.219734 161.596497,84.232025 
	C160.469116,84.129166 159.711548,84.120972 158.490997,84.058952 
	C149.358231,84.014015 140.688461,84.022919 131.683472,83.938736 
	C130.892670,83.907150 130.437119,83.968651 129.646042,84.011658 
	C128.869278,84.051895 128.428055,84.110619 127.573715,84.101257 
	C124.672935,84.085625 122.185249,84.138092 119.197876,84.108627 
	C114.797127,84.073357 110.896072,84.120033 106.532616,84.092529 
	C100.383186,84.056503 94.696152,84.094658 88.621223,84.056694 
	C87.186218,84.065720 86.139099,84.150879 84.625336,84.145966 
	C67.543922,84.038300 50.929028,83.976837 34.314423,84.021179 
	C25.699635,84.044174 17.085344,84.254471 8.132207,84.389816 
	C5.529055,84.599655 3.264527,84.799828 1.000000,85.000000 
z"/>
<path fill="#000000" opacity="1.000000" stroke="none" 
	d="
M241.089233,84.137917 
	C244.225006,84.137917 247.360764,84.137917 250.747986,84.137917 
	C250.747986,113.991875 250.747986,143.736679 250.747986,174.000748 
	C167.796921,174.000748 84.867111,174.000748 1.468657,174.000366 
	C1.000000,145.979111 1.000000,117.958214 1.376796,89.451462 
	C4.741394,86.665344 7.749595,87.305931 10.834456,88.803360 
	C16.046349,91.333267 21.294712,93.788147 26.532406,96.264702 
	C27.383379,96.667068 28.258362,97.018654 29.122246,97.393715 
	C28.797859,95.628471 27.940966,94.734093 27.005085,93.931839 
	C24.700634,91.956444 22.359880,90.023392 20.498529,88.039047 
	C32.634602,88.097092 44.305870,88.189400 55.981781,88.664520 
	C55.821053,90.351616 55.994869,91.828590 55.433487,92.931259 
	C52.498516,98.696159 49.412823,104.385925 46.278542,110.045891 
	C45.848259,110.822914 44.853970,111.287613 44.120808,111.896912 
	C44.045067,111.436401 43.969330,110.975891 43.893593,110.515381 
	C41.305367,110.515381 38.717140,110.515381 35.480453,110.515381 
	C36.202850,112.625786 36.620632,113.846291 37.049385,115.429314 
	C37.397236,117.211159 37.734112,118.630478 37.838196,120.334015 
	C37.086285,122.749863 36.567165,124.881500 35.702675,127.056786 
	C32.972767,130.815292 30.381565,134.415604 28.246304,138.268600 
	C23.664188,146.536865 19.191902,154.872086 14.926142,163.307068 
	C12.739549,167.630753 13.724111,168.933197 18.530884,168.991028 
	C21.689070,169.029022 24.848131,168.994644 28.456100,168.993958 
	C31.605570,168.991013 34.305740,168.986786 37.454578,168.988892 
	C40.604889,168.988892 43.306526,168.982544 46.452049,168.983521 
	C49.267986,168.981308 51.640041,168.971771 54.460896,168.973969 
	C57.609917,168.973633 60.310139,168.961594 63.463844,168.963928 
	C66.950752,168.962158 69.984184,168.946014 73.479355,168.948776 
	C77.965286,168.949631 81.989464,168.931580 86.480759,168.939392 
	C97.758507,168.974991 108.569206,168.967667 119.379745,169.005661 
	C122.317459,169.015991 124.697166,168.423004 124.928589,164.501862 
	C133.870911,145.701248 148.502396,135.348312 168.820267,132.792923 
	C170.809189,132.542770 172.630112,130.957031 174.595520,130.040726 
	C174.662003,130.090225 174.818802,130.036469 175.095215,130.097061 
	C175.737137,130.107452 176.102661,130.057251 176.543610,130.354492 
	C177.394028,131.005768 178.169022,131.309616 179.405182,131.715393 
	C187.217133,131.818375 194.567902,131.819427 202.347275,131.889526 
	C204.213654,131.965973 205.738815,132.254059 207.047485,131.846680 
	C207.593384,131.676743 207.678589,130.026901 207.985657,128.631683 
	C207.355286,125.434692 205.486740,122.151169 206.371948,120.001701 
	C207.547562,117.146996 206.619629,115.198112 206.377014,112.859863 
	C207.755280,111.626091 208.776733,110.382607 209.830124,109.166801 
	C213.249802,105.219963 216.120178,100.500664 220.249817,97.540451 
	C225.426437,93.829773 231.666840,91.617287 237.384766,88.636642 
	C238.643082,87.980721 239.635239,86.814201 240.831253,85.597366 
	C240.971436,84.920586 241.030334,84.529251 241.089233,84.137917 
M140.908188,168.989929 
	C144.268799,168.981461 147.629425,168.973007 151.906921,168.989578 
	C155.267197,168.986984 158.627487,168.984390 162.915543,168.996429 
	C166.942139,168.995880 170.968750,168.995316 175.920959,168.999252 
	C178.745667,168.999054 181.635590,169.365784 184.373871,168.879211 
	C186.455307,168.509338 189.246948,167.579254 190.167557,165.994873 
	C195.072342,157.553619 199.528992,148.849472 204.046387,140.187134 
	C205.397537,137.596237 204.513611,136.033356 201.463058,136.015564 
	C197.973846,135.995193 194.484436,136.007416 190.069458,136.003448 
	C186.041931,136.008423 182.014389,136.013382 177.164368,136.027466 
	C173.106430,136.695862 169.048508,137.364258 164.243103,138.089676 
	C159.823776,140.042526 155.404449,141.995377 150.287811,144.052536 
	C140.294617,149.779480 132.390152,157.293396 128.265381,168.958649 
	C132.750244,168.958649 136.370941,168.958649 140.908188,168.989929 
z"/>
<path fill="#222222" opacity="1.000000" stroke="none" 
	d="
M20.033726,88.073311 
	C22.359880,90.023392 24.700634,91.956444 27.005085,93.931839 
	C27.940966,94.734093 28.797859,95.628471 29.122246,97.393715 
	C28.258362,97.018654 27.383379,96.667068 26.532406,96.264702 
	C21.294712,93.788147 16.046349,91.333267 10.834456,88.803360 
	C7.749595,87.305931 4.741394,86.665344 1.376796,88.982803 
	C1.000000,87.933327 1.000000,86.866661 1.000000,85.399994 
	C3.264527,84.799828 5.529055,84.599655 8.332864,84.878723 
	C12.592672,86.263077 16.313200,87.168198 20.033726,88.073311 
z"/>
<path fill="#1D1D1D" opacity="1.000000" stroke="none" 
	d="
M89.009117,84.132820 
	C94.696152,84.094658 100.383186,84.056503 106.489594,84.441711 
	C104.232491,89.263390 101.556023,93.661705 98.514420,98.047775 
	C96.313240,97.452286 94.477203,96.869041 92.700203,96.304543 
	C91.805412,97.742531 91.039803,98.972923 90.012093,100.624519 
	C92.081787,102.065018 94.071472,103.449829 96.014374,105.205170 
	C95.223442,107.234955 94.532623,108.920624 93.725777,110.548798 
	C90.502029,117.054138 87.242218,123.541611 83.529449,130.037689 
	C78.051506,129.676758 73.039864,129.313812 68.285156,128.677948 
	C73.725281,128.732956 76.922295,125.885956 78.679504,121.469788 
	C82.139931,112.773170 90.900803,105.468285 86.007469,94.493912 
	C85.945938,94.355919 85.999535,94.166588 86.366135,93.959381 
	C87.766136,92.701744 88.799400,91.485954 89.832672,90.270172 
	C86.988289,88.569229 89.544868,86.143547 89.009117,84.132820 
z"/>
<path fill="#303030" opacity="1.000000" stroke="none" 
	d="
M132.018707,84.031822 
	C140.688461,84.022919 149.358231,84.014015 158.544968,84.460907 
	C158.694504,87.272476 158.327042,89.628242 157.852127,92.300644 
	C152.175400,99.529282 144.328857,100.035950 136.129120,99.853577 
	C135.589035,97.764557 134.985672,96.027672 135.053391,94.317352 
	C135.159866,91.628960 133.932938,90.824738 131.328659,90.739288 
	C131.413757,88.312820 131.716232,86.172318 132.018707,84.031822 
z"/>
<path fill="#6B6B6B" opacity="1.000000" stroke="none" 
	d="
M20.498531,88.039047 
	C16.313200,87.168198 12.592672,86.263077 8.671488,84.869057 
	C17.085344,84.254471 25.699635,84.044174 34.314423,84.021179 
	C50.929028,83.976837 67.543922,84.038300 84.585846,84.455872 
	C84.326782,85.888557 83.640572,86.921280 82.508057,87.987373 
	C79.364426,88.122337 76.667099,88.223923 73.513428,88.228714 
	C67.363777,88.181839 61.670460,88.231773 55.977139,88.281708 
	C44.305870,88.189400 32.634602,88.097092 20.498531,88.039047 
z"/>
<path fill="#7C7C7C" opacity="1.000000" stroke="none" 
	d="
M131.683472,83.938736 
	C131.716232,86.172318 131.413757,88.312820 131.343445,91.148758 
	C131.605576,93.475861 131.635544,95.107521 131.397873,96.797897 
	C130.753754,97.239006 130.377274,97.621384 129.618500,98.165718 
	C126.623291,98.559402 124.003281,99.034920 121.399353,98.958961 
	C118.384148,98.871002 117.150345,100.180893 116.952988,103.320732 
	C113.621391,107.451241 109.362434,107.210236 104.843506,106.565025 
	C102.794296,105.785164 100.970032,105.282143 99.103394,104.379303 
	C99.040604,102.356995 99.020187,100.734505 99.388519,99.127380 
	C104.058540,100.294029 108.507332,103.408066 112.527283,98.010803 
	C113.580208,97.345825 114.689850,96.071823 115.049538,96.256721 
	C119.252686,98.417343 118.981010,95.531013 119.344879,92.935471 
	C120.461113,92.669350 121.244087,92.383400 122.440392,92.094452 
	C127.328110,93.137939 126.928421,89.315910 128.347565,86.925430 
	C129.132004,85.943031 129.556778,84.986588 129.981567,84.030151 
	C130.437119,83.968651 130.892670,83.907150 131.683472,83.938736 
z"/>
<path fill="#7C7C7C" opacity="1.000000" stroke="none" 
	d="
M161.966324,84.326706 
	C179.675858,84.219734 197.385376,84.112770 215.551514,84.429291 
	C215.992554,85.770599 215.976990,86.688423 215.527588,87.704102 
	C212.733093,87.946777 210.372406,88.091583 207.576477,88.129295 
	C204.764923,88.101692 202.388580,88.181190 199.564941,88.153999 
	C195.756683,88.118507 192.395706,88.189697 188.576462,88.154388 
	C183.752716,88.120102 179.387268,88.192307 174.575012,88.173973 
	C171.092896,88.088715 168.057541,88.094009 164.860031,87.826141 
	C163.787354,86.477554 162.876831,85.402130 161.966324,84.326706 
z"/>
<path fill="#222222" opacity="1.000000" stroke="none" 
	d="
M112.235596,98.079498 
	C108.507332,103.408066 104.058540,100.294029 99.368317,98.862991 
	C98.932762,98.408836 98.906151,98.234428 98.879547,98.060020 
	C101.556023,93.661705 104.232491,89.263390 106.951981,84.515884 
	C110.896072,84.120033 114.797127,84.073357 118.758804,84.283318 
	C118.545868,84.693787 118.272301,84.847633 117.637680,85.049255 
	C115.996346,86.491730 114.103912,87.687897 113.572716,89.325592 
	C112.673927,92.096596 112.635651,95.146721 112.235596,98.079498 
z"/>
<path fill="#6B6B6B" opacity="1.000000" stroke="none" 
	d="
M215.961411,87.606239 
	C215.976990,86.688423 215.992554,85.770599 216.015656,84.508713 
	C224.064194,84.118965 232.105209,84.073280 240.617737,84.082756 
	C241.030334,84.529251 240.971436,84.920586 240.496490,85.619492 
	C235.769592,86.916008 231.458740,87.904976 226.848907,88.593536 
	C223.020416,88.064171 219.490906,87.835205 215.961411,87.606239 
z"/>
<path fill="#222222" opacity="1.000000" stroke="none" 
	d="
M127.987915,86.951393 
	C126.928421,89.315910 127.328110,93.137939 122.309746,91.768356 
	C120.663757,89.937996 119.561752,88.430740 118.393661,86.600433 
	C118.217964,85.852081 118.108345,85.426781 117.998726,85.001488 
	C118.272301,84.847633 118.545868,84.693787 119.258499,84.365250 
	C122.185249,84.138092 124.672935,84.085625 127.575638,84.449387 
	C127.989746,85.560883 127.988831,86.256134 127.987915,86.951393 
z"/>
<path fill="#6B6B6B" opacity="1.000000" stroke="none" 
	d="
M161.596497,84.232025 
	C162.876831,85.402130 163.787354,86.477554 164.856201,88.205849 
	C164.135727,91.045624 163.256912,93.232529 162.275482,95.015305 
	C160.768433,93.735443 159.364014,92.859726 157.959595,91.984016 
	C158.327042,89.628242 158.694504,87.272476 159.007965,84.514740 
	C159.711548,84.120972 160.469116,84.129166 161.596497,84.232025 
z"/>
<path fill="#292929" opacity="1.000000" stroke="none" 
	d="
M82.954361,87.953995 
	C83.640572,86.921280 84.326782,85.888557 85.052490,84.545937 
	C86.139099,84.150879 87.186218,84.065720 88.621223,84.056694 
	C89.544868,86.143547 86.988289,88.569229 89.832672,90.270172 
	C88.799400,91.485954 87.766136,92.701744 86.122169,93.806007 
	C85.010765,93.128586 84.510071,92.562698 84.002029,91.627960 
	C83.647903,90.157410 83.301132,89.055702 82.954361,87.953995 
M87.206352,91.611954 
	C87.210793,91.212852 87.215233,90.813759 87.219673,90.414658 
	C87.054062,90.413345 86.744553,90.400864 86.743652,90.412354 
	C86.712814,90.809418 86.711128,91.208748 87.206352,91.611954 
z"/>
<path fill="#303030" opacity="1.000000" stroke="none" 
	d="
M128.347565,86.925430 
	C127.988831,86.256134 127.989746,85.560883 127.988739,84.517487 
	C128.428055,84.110619 128.869278,84.051895 129.646042,84.011658 
	C129.556778,84.986588 129.132004,85.943031 128.347565,86.925430 
z"/>
<path fill="#2D2D2D" opacity="1.000000" stroke="none" 
	d="
M117.143852,103.015427 
	C117.150345,100.180893 118.384148,98.871002 121.399353,98.958961 
	C124.003281,99.034920 126.623291,98.559402 129.624023,98.547562 
	C131.364227,100.837013 132.716599,102.906586 134.409607,105.131760 
	C136.606247,105.793610 138.496262,106.816185 140.311066,106.696709 
	C143.895630,106.460709 147.438553,105.592476 150.994644,105.361923 
	C147.627838,112.366455 144.146454,118.937874 140.934723,125.638550 
	C137.517700,132.767487 134.356079,140.018829 131.037903,147.560272 
	C129.928467,149.540558 128.743118,151.112473 127.824501,152.827286 
	C125.821571,156.566223 122.145134,159.938965 124.879684,164.850708 
	C124.697166,168.423004 122.317459,169.015991 119.379745,169.005661 
	C108.569206,168.967667 97.758507,168.974991 86.516632,168.588074 
	C88.290710,163.984985 90.685234,159.844788 92.648766,155.509369 
	C94.658569,151.071777 96.246086,146.442902 98.372284,141.961304 
	C102.319862,144.336823 106.013466,146.510056 109.477005,149.002945 
	C112.459190,151.149368 115.179070,153.660248 118.004936,156.004089 
	C117.994949,155.998215 117.988548,155.976425 117.985809,156.317947 
	C118.448555,157.676025 118.892052,158.705124 119.442963,159.673080 
	C119.471214,159.722702 120.420914,159.247894 121.224678,158.786530 
	C121.902962,155.312561 122.074005,152.173218 117.947403,150.665253 
	C113.869247,143.129532 105.853447,140.913239 100.216629,135.728912 
	C101.531601,134.794922 103.114403,134.396057 103.657600,133.419128 
	C108.645920,124.447876 113.505646,115.403061 118.214684,106.282532 
	C118.583488,105.568214 117.534111,104.121666 117.143852,103.015427 
z"/>
<path fill="#070707" opacity="1.000000" stroke="none" 
	d="
M55.981781,88.664520 
	C61.670460,88.231773 67.363777,88.181839 73.519028,88.588127 
	C73.931641,89.705704 74.088425,90.477341 73.802361,91.012016 
	C68.872322,100.226418 63.792389,109.362007 58.967579,118.630569 
	C57.316097,121.803085 56.274006,125.292824 54.627811,128.708679 
	C53.858635,128.806396 53.415150,128.833099 52.704292,128.601761 
	C50.290169,128.569473 48.143417,128.795212 45.597092,128.939423 
	C44.748611,125.941582 44.299702,123.025284 43.905533,119.690109 
	C43.654602,113.586739 43.172417,113.293854 37.038414,115.066795 
	C36.620632,113.846291 36.202850,112.625786 35.480453,110.515381 
	C38.717140,110.515381 41.305367,110.515381 43.893593,110.515381 
	C43.969330,110.975891 44.045067,111.436401 44.120808,111.896912 
	C44.853970,111.287613 45.848259,110.822914 46.278542,110.045891 
	C49.412823,104.385925 52.498516,98.696159 55.433487,92.931259 
	C55.994869,91.828590 55.821053,90.351616 55.981781,88.664520 
z"/>
<path fill="#070707" opacity="1.000000" stroke="none" 
	d="
M28.006802,168.992676 
	C24.848131,168.994644 21.689070,169.029022 18.530884,168.991028 
	C13.724111,168.933197 12.739549,167.630753 14.926142,163.307068 
	C19.191902,154.872086 23.664188,146.536865 28.246304,138.268600 
	C30.381565,134.415604 32.972767,130.815292 35.797241,127.343674 
	C36.839359,129.007446 37.441532,130.427994 38.062683,132.231689 
	C38.543049,135.459671 40.363781,136.331467 43.005142,136.400208 
	C39.339188,144.356522 35.629803,151.899429 32.034443,159.496307 
	C30.564802,162.601608 29.341936,165.823715 28.006802,168.992676 
z"/>
<path fill="#0E0E0E" opacity="1.000000" stroke="none" 
	d="
M215.527588,87.704102 
	C219.490906,87.835205 223.020416,88.064171 226.691513,88.914574 
	C225.468460,90.428055 224.115036,91.337891 222.737289,92.209229 
	C214.834488,97.207199 207.407959,102.585968 206.034821,112.862823 
	C206.619629,115.198112 207.547562,117.146996 206.371948,120.001701 
	C205.486740,122.151169 207.355286,125.434692 207.556122,128.619781 
	C205.381912,129.062576 203.649597,129.098999 201.459991,129.107101 
	C197.010284,128.953751 193.017914,128.828705 189.018768,128.342896 
	C189.689209,125.964584 190.113052,123.814751 191.086075,121.951729 
	C196.160172,112.236427 201.406647,102.611267 206.503052,92.907425 
	C207.252701,91.480011 207.520798,89.799690 208.011719,88.236389 
	C210.372406,88.091583 212.733093,87.946777 215.527588,87.704102 
z"/>
<path fill="#070707" opacity="1.000000" stroke="none" 
	d="
M190.995117,136.005463 
	C194.484436,136.007416 197.973846,135.995193 201.463058,136.015564 
	C204.513611,136.033356 205.397537,137.596237 204.046387,140.187134 
	C199.528992,148.849472 195.072342,157.553619 190.167557,165.994873 
	C189.246948,167.579254 186.455307,168.509338 184.373871,168.879211 
	C181.635590,169.365784 178.745667,168.999054 175.497101,168.637238 
	C177.568878,163.436981 180.138428,158.635101 182.541122,153.751144 
	C185.433212,147.872375 188.183456,141.923813 190.995117,136.005463 
z"/>
<path fill="#181818" opacity="1.000000" stroke="none" 
	d="
M189.034744,88.260880 
	C192.395706,88.189697 195.756683,88.118507 199.556076,88.508842 
	C194.992020,98.819290 189.938507,108.642815 185.017426,118.532242 
	C183.496384,121.588913 182.335846,124.824974 180.597656,127.984741 
	C178.396301,128.672531 176.607544,129.354492 174.818802,130.036469 
	C174.818802,130.036469 174.662003,130.090225 174.128296,130.043365 
	C172.072784,129.963425 170.550980,129.930313 169.064178,129.541901 
	C174.730606,118.293503 180.422348,107.430832 185.949295,96.484955 
	C187.261230,93.886734 188.020996,91.009674 189.034744,88.260880 
z"/>
<path fill="#0E0E0E" opacity="1.000000" stroke="none" 
	d="
M190.532288,136.004456 
	C188.183456,141.923813 185.433212,147.872375 182.541122,153.751144 
	C180.138428,158.635101 177.568878,163.436981 175.034302,168.634979 
	C170.968750,168.995316 166.942139,168.995880 162.461792,168.613861 
	C163.383240,165.265244 164.683228,162.261475 166.148178,159.340439 
	C170.056519,151.547424 174.035782,143.789948 177.986862,136.018356 
	C182.014389,136.013382 186.041931,136.008423 190.532288,136.004456 
z"/>
<path fill="#292929" opacity="1.000000" stroke="none" 
	d="
M98.018448,141.897766 
	C96.246086,146.442902 94.658569,151.071777 92.648766,155.509369 
	C90.685234,159.844788 88.290710,163.984985 86.049515,168.562195 
	C81.989464,168.931580 77.965286,168.949631 73.479111,168.578369 
	C74.671852,164.634308 76.328415,161.080414 77.980919,157.524658 
	C80.994164,151.041000 84.005013,144.556259 87.395378,138.088623 
	C91.188751,139.369446 94.603592,140.633606 98.018448,141.897766 
z"/>
<path fill="#181818" opacity="1.000000" stroke="none" 
	d="
M177.575623,136.022919 
	C174.035782,143.789948 170.056519,151.547424 166.148178,159.340439 
	C164.683228,162.261475 163.383240,165.265244 161.997910,168.606537 
	C158.627487,168.984390 155.267197,168.986984 151.452789,168.587616 
	C152.661240,164.296555 154.215866,160.356796 156.010925,156.529816 
	C158.921204,150.325195 161.989197,144.194550 164.990570,138.032654 
	C169.048508,137.364258 173.106430,136.695862 177.575623,136.022919 
z"/>
<path fill="#222222" opacity="1.000000" stroke="none" 
	d="
M87.016861,138.071976 
	C84.005013,144.556259 80.994164,151.041000 77.980919,157.524658 
	C76.328415,161.080414 74.671852,164.634308 73.017365,168.559448 
	C69.984184,168.946014 66.950752,168.962158 63.465778,168.592072 
	C64.408195,165.221588 65.771996,162.222794 67.202072,159.255951 
	C70.786140,151.820465 74.400223,144.399429 78.429634,136.984894 
	C81.576958,137.355438 84.296906,137.713699 87.016861,138.071976 
z"/>
<path fill="#1D1D1D" opacity="1.000000" stroke="none" 
	d="
M164.616852,138.061157 
	C161.989197,144.194550 158.921204,150.325195 156.010925,156.529816 
	C154.215866,160.356796 152.661240,164.296555 150.994354,168.575104 
	C147.629425,168.973007 144.268799,168.981461 140.459045,168.600891 
	C141.682602,164.630295 143.392776,161.065628 145.018463,157.462830 
	C147.043762,152.974396 148.999405,148.454529 150.985123,143.948227 
	C155.404449,141.995377 159.823776,140.042526 164.616852,138.061157 
z"/>
<path fill="#121212" opacity="1.000000" stroke="none" 
	d="
M46.008171,168.976196 
	C43.306526,168.982544 40.604889,168.988892 37.458046,168.612808 
	C37.790966,166.250946 38.410957,164.190689 39.374210,162.305862 
	C43.866158,153.516479 48.452919,144.775543 53.455223,136.012146 
	C56.605774,136.012512 59.306881,136.018036 61.967957,136.381577 
	C57.843224,144.463593 53.680042,152.147583 49.714565,159.932281 
	C48.240761,162.825516 47.230057,165.954651 46.008171,168.976196 
z"/>
<path fill="#0E0E0E" opacity="1.000000" stroke="none" 
	d="
M53.005775,136.017288 
	C48.452919,144.775543 43.866158,153.516479 39.374210,162.305862 
	C38.410957,164.190689 37.790966,166.250946 37.009377,168.606476 
	C34.305740,168.986786 31.605570,168.991013 28.456100,168.993958 
	C29.341936,165.823715 30.564802,162.601608 32.034443,159.496307 
	C35.629803,151.899429 39.339188,144.356522 43.458450,136.398682 
	C46.944744,136.009430 49.975258,136.013367 53.005775,136.017288 
z"/>
<path fill="#181818" opacity="1.000000" stroke="none" 
	d="
M46.452049,168.983521 
	C47.230057,165.954651 48.240761,162.825516 49.714565,159.932281 
	C53.680042,152.147583 57.843224,144.463593 62.411461,136.374237 
	C65.266830,136.018585 67.638672,136.028290 70.001823,136.413589 
	C68.335617,140.350830 66.763916,143.955536 65.002632,147.465103 
	C61.392967,154.657837 57.681599,161.799545 54.012100,168.962250 
	C51.640041,168.971771 49.267986,168.981308 46.452049,168.983521 
z"/>
<path fill="#1D1D1D" opacity="1.000000" stroke="none" 
	d="
M54.460899,168.973969 
	C57.681599,161.799545 61.392967,154.657837 65.002632,147.465103 
	C66.763916,143.955536 68.335617,140.350830 70.430130,136.401855 
	C73.245514,136.333878 75.623886,136.653244 78.002266,136.972610 
	C74.400223,144.399429 70.786140,151.820465 67.202072,159.255951 
	C65.771996,162.222794 64.408195,165.221588 63.012299,168.577698 
	C60.310139,168.961594 57.609917,168.973633 54.460899,168.973969 
z"/>
<path fill="#474747" opacity="1.000000" stroke="none" 
	d="
M38.043705,131.848541 
	C37.441532,130.427994 36.839359,129.007446 36.142616,127.300018 
	C36.567165,124.881500 37.086285,122.749863 38.251625,120.322968 
	C40.548832,120.054794 42.199810,120.081886 43.850788,120.108978 
	C44.299702,123.025284 44.748611,125.941582 45.840919,129.236328 
	C48.646767,129.363098 50.809216,129.111450 52.971661,128.859787 
	C53.415150,128.833099 53.858635,128.806396 55.081879,128.813629 
	C59.225788,128.814255 62.589943,128.780960 66.295952,128.812775 
	C67.101273,128.902191 67.564743,128.926529 68.028214,128.950867 
	C73.039864,129.313812 78.051506,129.676758 83.800842,130.304550 
	C87.351097,131.075623 90.163658,131.581863 93.039322,132.426956 
	C95.402367,133.842514 97.702316,134.919205 100.002266,135.995895 
	C105.853447,140.913239 113.869247,143.129532 117.919403,150.961761 
	C117.631149,152.063431 117.313423,152.534317 116.715172,152.827011 
	C105.153999,138.712524 89.987656,132.810242 72.616959,132.082230 
	C61.109486,131.599976 49.569263,131.899185 38.043705,131.848541 
z"/>
<path fill="#222222" opacity="1.000000" stroke="none" 
	d="
M150.636475,144.000381 
	C148.999405,148.454529 147.043762,152.974396 145.018463,157.462830 
	C143.392776,161.065628 141.682602,164.630295 140.000793,168.585266 
	C136.370941,168.958649 132.750244,168.958649 128.265381,168.958649 
	C132.390152,157.293396 140.294617,149.779480 150.636475,144.000381 
z"/>
<path fill="#545454" opacity="1.000000" stroke="none" 
	d="
M169.029190,129.897202 
	C170.550980,129.930313 172.072784,129.963425 174.061798,129.993866 
	C172.630112,130.957031 170.809189,132.542770 168.820267,132.792923 
	C148.502396,135.348312 133.870911,145.701248 124.928589,164.501862 
	C122.145134,159.938965 125.821571,156.566223 127.824501,152.827286 
	C128.743118,151.112473 129.928467,149.540558 131.373199,147.471313 
	C139.170105,142.354523 146.586670,137.670242 154.416397,132.980331 
	C159.562759,131.948853 164.295975,130.923035 169.029190,129.897202 
z"/>
<path fill="#474747" opacity="1.000000" stroke="none" 
	d="
M206.377014,112.859863 
	C207.407959,102.585968 214.834488,97.207199 222.737289,92.209229 
	C224.115036,91.337891 225.468460,90.428055 226.990509,89.214973 
	C231.458740,87.904976 235.769592,86.916008 240.415207,85.904930 
	C239.635239,86.814201 238.643082,87.980721 237.384766,88.636642 
	C231.666840,91.617287 225.426437,93.829773 220.249817,97.540451 
	C216.120178,100.500664 213.249802,105.219963 209.830124,109.166801 
	C208.776733,110.382607 207.755280,111.626091 206.377014,112.859863 
z"/>
<path fill="#474747" opacity="1.000000" stroke="none" 
	d="
M189.025528,128.703674 
	C193.017914,128.828705 197.010284,128.953751 201.483948,129.441437 
	C201.949707,130.476227 201.934189,131.148346 201.918686,131.820480 
	C194.567902,131.819427 187.217133,131.818375 179.415054,131.459412 
	C178.967178,130.756439 178.970612,130.411362 179.318542,130.035812 
	C180.434052,129.639984 181.205063,129.274658 182.417572,128.918304 
	C184.914551,128.852753 186.970032,128.778214 189.025528,128.703674 
z"/>
<path fill="#292929" opacity="1.000000" stroke="none" 
	d="
M43.905533,119.690102 
	C42.199810,120.081886 40.548832,120.054794 38.484421,120.038757 
	C37.734112,118.630478 37.397236,117.211159 37.049385,115.429314 
	C43.172417,113.293854 43.654602,113.586739 43.905533,119.690102 
z"/>
<path fill="#303030" opacity="1.000000" stroke="none" 
	d="
M202.347275,131.889526 
	C201.934189,131.148346 201.949707,130.476227 201.941254,129.469757 
	C203.649597,129.098999 205.381912,129.062576 207.543747,129.038055 
	C207.678589,130.026901 207.593384,131.676743 207.047485,131.846680 
	C205.738815,132.254059 204.213654,131.965973 202.347275,131.889526 
z"/>
<path fill="#222222" opacity="1.000000" stroke="none" 
	d="
M181.976074,128.909317 
	C181.205063,129.274658 180.434052,129.639984 178.902374,130.014984 
	C177.583847,130.018753 177.026016,130.012894 176.468170,130.007050 
	C176.102661,130.057251 175.737137,130.107452 175.095215,130.097061 
	C176.607544,129.354492 178.396301,128.672531 180.807587,128.085083 
	C181.702515,128.355225 181.884491,128.598465 181.976074,128.909317 
z"/>
<path fill="#545454" opacity="1.000000" stroke="none" 
	d="
M176.543610,130.354492 
	C177.026016,130.012894 177.583847,130.018753 178.557861,130.045471 
	C178.970612,130.411362 178.967178,130.756439 178.953888,131.357483 
	C178.169022,131.309616 177.394028,131.005768 176.543610,130.354492 
z"/>
<path fill="#181818" opacity="1.000000" stroke="none" 
	d="
M68.285156,128.677948 
	C67.564743,128.926529 67.101273,128.902191 66.308548,128.432999 
	C66.220848,126.540779 66.104408,124.901932 66.760109,123.676086 
	C72.431030,113.074158 78.240898,102.546547 84.009377,91.996803 
	C84.510071,92.562698 85.010765,93.128586 85.755432,93.847855 
	C85.999535,94.166588 85.945938,94.355919 86.007469,94.493912 
	C90.900803,105.468285 82.139931,112.773170 78.679504,121.469788 
	C76.922295,125.885956 73.725281,128.732956 68.285156,128.677948 
z"/>
<path fill="#222222" opacity="1.000000" stroke="none" 
	d="
M92.976227,132.088089 
	C90.163658,131.581863 87.351097,131.075623 84.267136,130.302551 
	C87.242218,123.541611 90.502029,117.054138 93.725777,110.548798 
	C94.532623,108.920624 95.223442,107.234955 96.398911,105.236473 
	C97.602081,104.857864 98.373924,104.818504 99.145775,104.779129 
	C100.970032,105.282143 102.794296,105.785164 104.818192,106.954781 
	C104.062973,109.849724 103.219360,112.134041 102.131935,114.295692 
	C99.134613,120.253944 96.035233,126.160866 92.976227,132.088089 
z"/>
<path fill="#545454" opacity="1.000000" stroke="none" 
	d="
M99.103394,104.379303 
	C98.373924,104.818504 97.602081,104.857864 96.445694,104.865936 
	C94.071472,103.449829 92.081787,102.065018 90.012093,100.624519 
	C91.039803,98.972923 91.805412,97.742531 92.700203,96.304543 
	C94.477203,96.869041 96.313240,97.452286 98.514412,98.047775 
	C98.906151,98.234428 98.932762,98.408836 98.979576,98.847641 
	C99.020187,100.734505 99.040604,102.356995 99.103394,104.379303 
z"/>
<path fill="#7C7C7C" opacity="1.000000" stroke="none" 
	d="
M150.998703,104.985672 
	C147.438553,105.592476 143.895630,106.460709 140.311066,106.696709 
	C138.496262,106.816185 136.606247,105.793610 134.418884,104.818909 
	C134.098862,103.731491 134.110214,103.112549 134.358185,102.505936 
	C134.594803,102.518272 135.063278,102.603271 135.063278,102.603271 
	C135.063278,102.603271 135.531052,102.514336 135.723587,102.672821 
	C136.156281,102.782547 136.396439,102.733780 136.636597,102.685013 
	C136.474075,102.410278 136.311569,102.135544 136.168915,101.584946 
	C136.248108,100.945259 136.307449,100.581444 136.366776,100.217628 
	C144.328857,100.035950 152.175400,99.529282 157.852142,92.300644 
	C159.364014,92.859726 160.768433,93.735443 162.197861,95.343063 
	C160.342743,101.389694 155.307465,102.730118 150.998703,104.985672 
z"/>
<path fill="#000000" opacity="1.000000" stroke="none" 
	d="
M135.531052,102.514336 
	C135.531052,102.514336 135.063278,102.603271 135.063278,102.603271 
	C135.063278,102.603271 134.594803,102.518272 134.243973,102.120819 
	C133.150604,100.061966 132.408051,98.400574 131.665512,96.739182 
	C131.635544,95.107521 131.605576,93.475861 131.560822,91.434723 
	C133.932938,90.824738 135.159866,91.628960 135.053391,94.317352 
	C134.985672,96.027672 135.589035,97.764557 136.129120,99.853577 
	C136.307449,100.581444 136.248108,100.945259 136.008194,101.742447 
	C135.827621,102.175819 135.531052,102.514336 135.531052,102.514336 
z"/>
<path fill="#0E0E0E" opacity="1.000000" stroke="none" 
	d="
M84.002029,91.627960 
	C78.240898,102.546547 72.431030,113.074158 66.760109,123.676086 
	C66.104408,124.901932 66.220848,126.540779 65.966698,128.367920 
	C62.589943,128.780960 59.225788,128.814255 55.407562,128.742584 
	C56.274006,125.292824 57.316097,121.803085 58.967579,118.630569 
	C63.792389,109.362007 68.872322,100.226418 73.802361,91.012016 
	C74.088425,90.477341 73.931641,89.705704 73.975357,88.684937 
	C76.667099,88.223923 79.364426,88.122337 82.508057,87.987373 
	C83.301132,89.055702 83.647903,90.157410 84.002029,91.627960 
z"/>
<path fill="#292929" opacity="1.000000" stroke="none" 
	d="
M93.039322,132.426956 
	C96.035233,126.160866 99.134613,120.253944 102.131935,114.295692 
	C103.219360,112.134041 104.062973,109.849724 105.043137,107.231621 
	C109.362434,107.210236 113.621391,107.451241 116.952988,103.320732 
	C117.534111,104.121666 118.583488,105.568214 118.214684,106.282532 
	C113.505646,115.403061 108.645920,124.447876 103.657600,133.419128 
	C103.114403,134.396057 101.531601,134.794922 100.216629,135.728912 
	C97.702316,134.919205 95.402367,133.842514 93.039322,132.426956 
z"/>
<path fill="#636363" opacity="1.000000" stroke="none" 
	d="
M117.637680,85.049255 
	C118.108345,85.426781 118.217964,85.852081 118.249306,86.966843 
	C118.451225,89.409424 118.731422,91.162529 119.011612,92.915642 
	C118.981010,95.531013 119.252686,98.417343 115.049538,96.256721 
	C114.689850,96.071823 113.580208,97.345825 112.527275,98.010803 
	C112.635651,95.146721 112.673927,92.096596 113.572716,89.325592 
	C114.103912,87.687897 115.996346,86.491730 117.637680,85.049255 
z"/>
<path fill="#303030" opacity="1.000000" stroke="none" 
	d="
M131.397873,96.797897 
	C132.408051,98.400574 133.150604,100.061966 134.007355,102.108475 
	C134.110214,103.112549 134.098862,103.731491 134.078232,104.663300 
	C132.716599,102.906586 131.364227,100.837013 130.006332,98.385605 
	C130.377274,97.621384 130.753754,97.239006 131.397873,96.797897 
z"/>
<path fill="#303030" opacity="1.000000" stroke="none" 
	d="
M119.344879,92.935471 
	C118.731422,91.162529 118.451225,89.409424 118.315384,87.289902 
	C119.561752,88.430740 120.663757,89.937996 121.896416,91.771347 
	C121.244087,92.383400 120.461113,92.669350 119.344879,92.935471 
z"/>
<path fill="#292929" opacity="1.000000" stroke="none" 
	d="
M150.994644,105.361916 
	C155.307465,102.730118 160.342743,101.389694 162.300476,95.747200 
	C163.256912,93.232529 164.135727,91.045624 165.018372,88.479004 
	C168.057541,88.094009 171.092896,88.088715 174.569763,88.541267 
	C174.702164,90.269257 174.640945,91.671509 174.045410,92.789024 
	C168.361893,103.454079 162.507904,114.028992 156.898346,124.732231 
	C155.559174,127.287407 154.948807,130.224533 154.003250,132.985977 
	C146.586670,137.670242 139.170105,142.354523 131.418228,147.127747 
	C134.356079,140.018829 137.517700,132.767487 140.934723,125.638550 
	C144.146454,118.937874 147.627838,112.366455 150.994644,105.361916 
z"/>
<path fill="#222222" opacity="1.000000" stroke="none" 
	d="
M154.416397,132.980331 
	C154.948807,130.224533 155.559174,127.287407 156.898346,124.732231 
	C162.507904,114.028992 168.361893,103.454079 174.045410,92.789024 
	C174.640945,91.671509 174.702164,90.269257 175.016541,88.631813 
	C179.387268,88.192307 183.752716,88.120102 188.576462,88.154388 
	C188.020996,91.009674 187.261230,93.886734 185.949295,96.484955 
	C180.422348,107.430832 174.730606,118.293503 169.064178,129.541901 
	C164.295975,130.923035 159.562759,131.948853 154.416397,132.980331 
z"/>
<path fill="#121212" opacity="1.000000" stroke="none" 
	d="
M182.417572,128.918304 
	C181.884491,128.598465 181.702515,128.355225 181.220200,128.079254 
	C182.335846,124.824974 183.496384,121.588913 185.017426,118.532242 
	C189.938507,108.642815 194.992020,98.819290 200.003387,88.615524 
	C202.388580,88.181190 204.764923,88.101692 207.576477,88.129303 
	C207.520798,89.799690 207.252701,91.480011 206.503052,92.907425 
	C201.406647,102.611267 196.160172,112.236427 191.086075,121.951729 
	C190.113052,123.814751 189.689209,125.964584 189.018768,128.342896 
	C186.970032,128.778214 184.914551,128.852753 182.417572,128.918304 
z"/>
<path fill="#1D1D1D" opacity="1.000000" stroke="none" 
	d="
M86.955811,91.609848 
	C86.711128,91.208748 86.712814,90.809418 86.743652,90.412354 
	C86.744553,90.400864 87.054062,90.413345 87.219673,90.414658 
	C87.215233,90.813759 87.210793,91.212852 86.955811,91.609848 
z"/>
<path fill="#000000" opacity="1.000000" stroke="none" 
	d="
M38.062683,132.231689 
	C49.569263,131.899185 61.109486,131.599976 72.616959,132.082230 
	C89.987656,132.810242 105.153999,138.712524 116.836258,153.125153 
	C117.496887,154.404312 117.755905,155.207153 118.014923,156.009979 
	C115.179070,153.660248 112.459190,151.149368 109.477005,149.002945 
	C106.013466,146.510056 102.319862,144.336823 98.372276,141.961304 
	C94.603592,140.633606 91.188751,139.369446 87.395386,138.088623 
	C84.296906,137.713699 81.576958,137.355438 78.429634,136.984894 
	C75.623886,136.653244 73.245514,136.333878 70.438828,136.026245 
	C67.638672,136.028290 65.266830,136.018585 62.451488,136.016205 
	C59.306881,136.018036 56.605774,136.012512 53.455223,136.012146 
	C49.975258,136.013367 46.944744,136.009430 43.460915,136.007019 
	C40.363781,136.331467 38.543049,135.459671 38.062683,132.231689 
z"/>
<path fill="#303030" opacity="1.000000" stroke="none" 
	d="
M118.004936,156.004089 
	C117.755905,155.207153 117.496887,154.404312 117.116776,153.303345 
	C117.313423,152.534317 117.631149,152.063431 117.976883,151.296021 
	C122.074005,152.173218 121.902962,155.312561 120.969444,158.614380 
	C119.616936,157.774109 118.802742,156.875275 117.988548,155.976425 
	C117.988548,155.976425 117.994949,155.998215 118.004936,156.004089 
z"/>
<path fill="#000000" opacity="1.000000" stroke="none" 
	d="
M117.985809,156.317947 
	C118.802742,156.875275 119.616936,157.774109 120.686363,158.845108 
	C120.420914,159.247894 119.471214,159.722702 119.442963,159.673080 
	C118.892052,158.705124 118.448555,157.676025 117.985809,156.317947 
z"/>
<path fill="#1D1D1D" opacity="1.000000" stroke="none" 
	d="
M52.704292,128.601761 
	C50.809216,129.111450 48.646767,129.363098 46.240494,129.317871 
	C48.143417,128.795212 50.290169,128.569473 52.704292,128.601761 
z"/>
<path fill="#000000" opacity="1.000000" stroke="none" 
	d="
M135.988342,102.018311 
	C136.311569,102.135544 136.474075,102.410278 136.636597,102.685013 
	C136.396439,102.733780 136.156281,102.782547 135.723587,102.672821 
	C135.531052,102.514336 135.827621,102.175819 135.988342,102.018311 
z"/>
</svg>